<svg width="24" height="26" viewBox="0 0 24 26" fill="none" xmlns="http://www.w3.org/2000/svg">
<path fill-rule="evenodd" clip-rule="evenodd" d="M5.14287 0H16.2857L24 6.1579V21.8947C24 22.2577 23.8194 22.6057 23.4979 22.8624C23.1764 23.119 22.7404 23.2632 22.2857 23.2632H5.14287C4.68822 23.2632 4.25218 23.119 3.93069 22.8624C3.6092 22.6057 3.42859 22.2577 3.42859 21.8947V1.36842C3.42859 1.00549 3.6092 0.65743 3.93069 0.400801C4.25218 0.144172 4.68822 0 5.14287 0ZM21.4286 6.1579L16.2857 2.05263V5.47368C16.2857 5.65515 16.376 5.82918 16.5368 5.95749C16.6975 6.08581 16.9155 6.1579 17.1429 6.1579H21.4286ZM19.4632 11.1478C19.6238 11.2762 19.7141 11.4502 19.7141 11.6316C19.7141 11.813 19.6238 11.987 19.4632 12.1153L12 18.0727L7.96545 14.8522C7.80931 14.7231 7.72291 14.5503 7.72487 14.3709C7.72682 14.1915 7.81697 14.0199 7.97589 13.893C8.13481 13.7662 8.34979 13.6942 8.57453 13.6926C8.79927 13.6911 9.01579 13.76 9.17745 13.8847L12 16.1378L18.2512 11.1478C18.4119 11.0196 18.6299 10.9475 18.8572 10.9475C19.0844 10.9475 19.3024 11.0196 19.4632 11.1478Z" fill="#FE7845"/>
<path d="M1.71429 4.10526H0V22.5789C0 23.4863 0.451529 24.3564 1.25526 24.998C2.05898 25.6396 3.14907 26 4.28571 26H20.5714V24.6316H4.28571C3.60373 24.6316 2.94968 24.4153 2.46744 24.0304C1.9852 23.6454 1.71429 23.1233 1.71429 22.5789V4.10526Z" fill="#FE7845"/>
</svg>
