<svg width="40" height="40" viewBox="0 0 40 40" fill="none" xmlns="http://www.w3.org/2000/svg">
<rect width="40" height="40" rx="8" fill="#A963EF"/>
<path d="M29.2047 13.8817L29.5701 13.5162C29.8114 13.275 29.9441 12.9535 29.9441 12.611C29.9441 12.2683 29.8112 11.9468 29.5701 11.7058L28.1557 10.2914C27.9144 10.0501 27.5929 9.91709 27.2502 9.91709C26.9075 9.91709 26.586 10.0498 26.3447 10.2914L25.9793 10.6568L24.5443 9.22185C24.2488 8.92605 23.7679 8.92605 23.4726 9.22185L22.0714 10.6233L21.6172 10.1691C21.2779 9.8303 20.7261 9.83006 20.3866 10.1694L18.2615 12.2942C18.0975 12.4582 18.007 12.6768 18.007 12.9097C18.007 13.1425 18.0972 13.361 18.2612 13.525L20.5965 15.8604L15.8602 20.596L13.5249 18.2607C13.1856 17.9219 12.6338 17.9216 12.2943 18.2609L10.1692 20.3858C10.0052 20.5498 9.9147 20.7683 9.9147 21.0013C9.9147 21.234 10.0049 21.4526 10.1689 21.6166L10.6231 22.0708L9.22166 23.4723C8.92611 23.7678 8.92611 24.2482 9.22166 24.5438L10.6569 25.979L10.2914 26.3444C10.0501 26.5857 9.91715 26.9072 9.91715 27.2499C9.91715 27.5924 10.0499 27.9139 10.2912 28.1551L11.7058 29.5698C11.9554 29.8194 12.2833 29.9441 12.6111 29.9441C12.9389 29.9441 13.267 29.8192 13.5165 29.5696L13.882 29.2041L15.4571 30.7792C15.6003 30.9222 15.7905 31.0009 15.9932 31.0009C16.1961 31.0009 16.3862 30.9222 16.529 30.7792L17.9305 29.3779L18.3844 29.8319C18.5485 29.9962 18.767 30.0864 19 30.0864C19.233 30.0864 19.4513 29.9959 19.6151 29.8319L21.7404 27.7068C22.0794 27.3675 22.0794 26.8158 21.7404 26.4764L19.4051 24.1411L24.1414 19.4048L26.4765 21.7396C26.6405 21.9039 26.8591 21.9943 27.0918 21.9943C27.3245 21.9943 27.5431 21.9041 27.7071 21.7398L29.8322 19.6147C30.1712 19.2754 30.1712 18.7237 29.8322 18.3844L29.378 17.9302L30.7795 16.5287C31.075 16.2332 31.075 15.7525 30.7795 15.457L29.2047 13.8817ZM26.9899 10.9357C27.0588 10.8668 27.1512 10.8289 27.2502 10.8289C27.3492 10.8289 27.4416 10.8668 27.5106 10.9357L28.9252 12.3504C28.9942 12.4194 29.0321 12.5115 29.0321 12.6108C29.0321 12.7095 28.9942 12.8022 28.925 12.8714L28.5595 13.2368L26.6242 11.3015L26.9899 10.9357ZM12.8719 28.9247C12.7284 29.0684 12.4945 29.0684 12.3507 28.9249L10.9363 27.5105C10.8674 27.4413 10.8292 27.3489 10.8292 27.2499C10.8292 27.1509 10.8671 27.0585 10.9363 26.9893L11.3018 26.6239L13.2371 28.5592L12.8719 28.9247ZM15.9932 30.0252L9.97582 24.0079L11.2683 22.7157L17.2856 28.733L15.9932 30.0252ZM21.0659 27.0915L19 29.1574L14.9217 25.0794L11.8041 21.9618C11.8039 21.9615 11.8039 21.9615 11.8036 21.9615L10.8436 21.0016L12.9096 18.9356L21.0659 27.0915ZM18.7602 23.496L16.5051 21.2409L21.2414 16.5045L23.4966 18.7596L18.7602 23.496ZM27.0921 21.0651L18.9357 12.909L21.0016 10.8431L29.158 18.9992L27.0921 21.0651ZM28.7336 17.2851L22.7162 11.2675L24.0085 9.97527L30.0258 15.9926L28.7336 17.2851Z" fill="white"/>
</svg>
