<svg width="40" height="40" viewBox="0 0 40 40" fill="none" xmlns="http://www.w3.org/2000/svg">
<rect width="40" height="40" rx="8" fill="#5EA7FF"/>
<path d="M29.9268 15.8832C29.8986 15.8179 29.8565 15.7593 29.8042 15.7088C29.8021 15.707 29.8017 15.7044 29.7997 15.7026C29.7988 15.7018 29.7976 15.7015 29.7964 15.7007C29.7412 15.6495 29.6754 15.6078 29.6015 15.5787C29.6006 15.5784 29.5998 15.578 29.5986 15.5776C29.5304 15.5511 29.4552 15.5367 29.3771 15.5345C29.3734 15.5345 29.3702 15.5338 29.3669 15.5338C29.3636 15.5338 29.3604 15.533 29.3575 15.533C29.2843 15.533 29.2153 15.5467 29.1503 15.5677C29.1446 15.5695 29.1393 15.5702 29.1335 15.5725C29.0612 15.5979 28.9962 15.6358 28.9398 15.683C28.9378 15.6849 28.9349 15.6852 28.9329 15.6871L28.3187 16.2186L28.9304 14.7667C29.2999 13.8884 29.0641 12.9357 28.4123 12.28C29.9905 11.2634 30.078 10.4507 29.9668 10.0298C29.8389 9.54695 29.3726 9.22444 28.7494 9.18832C28.2194 9.1581 27.5974 9.33244 27.0163 9.74119C26.8843 9.08844 26.5475 8.58533 26.1254 8.289C25.633 7.94327 25.0477 7.90494 24.5954 8.18911C24.2022 8.43716 23.6689 9.09729 24.1009 10.8034C23.1307 10.9033 22.2525 11.4739 21.8818 12.3522L20.5378 15.5437C20.4413 15.5356 20.3441 15.5419 20.2529 15.575C20.2006 15.0911 20.1177 14.5998 19.9995 14.1048C19.134 10.4831 16.8161 7.96575 14.7168 8.37229C13.1917 8.669 12.2705 10.4234 12.2129 12.751C12.1892 12.8686 12.1884 12.9898 12.21 13.1133C12.2203 13.8836 12.3196 14.707 12.5231 15.5584V15.5588C12.5231 15.5588 12.5231 15.5588 12.5231 15.5592C12.5815 15.8028 12.6477 16.0424 12.7196 16.2783L12.038 15.6878C12.036 15.686 12.0327 15.6856 12.0306 15.6838C11.9751 15.637 11.9105 15.5994 11.8382 15.5736C11.8316 15.5713 11.8255 15.5702 11.819 15.568C11.7544 15.547 11.6857 15.5338 11.6134 15.5338C11.6105 15.5338 11.6081 15.5345 11.6052 15.5345C11.6003 15.5345 11.5958 15.5356 11.5909 15.5356C11.5137 15.5382 11.4397 15.5522 11.3723 15.578C11.3711 15.5784 11.3702 15.5791 11.369 15.5798C11.2955 15.6086 11.2297 15.6502 11.1741 15.7015C11.1733 15.7022 11.172 15.7026 11.1708 15.7033C11.1688 15.7051 11.1684 15.7081 11.1663 15.7099C11.1144 15.7601 11.0727 15.8187 11.0441 15.8835C11.0417 15.8894 11.0405 15.895 11.038 15.9009C11.0147 15.9591 11 16.021 11 16.0863V29.8106C11 30.4663 11.6485 31 12.4454 31H28.5238C29.3207 31 29.9693 30.4667 29.9693 29.8106V16.0855C29.9693 16.0199 29.9545 15.958 29.9313 15.8998C29.9304 15.8942 29.9292 15.8887 29.9268 15.8832ZM28.3653 10.3272C28.5847 10.2697 28.7228 10.2911 28.7756 10.3084C28.7625 10.4496 28.5063 10.9361 27.3158 11.6132L26.9754 11.4967C27.5014 10.6206 28.1536 10.3829 28.3653 10.3272ZM25.2819 9.11092C25.3338 9.12935 25.4523 9.19606 25.5745 9.37077C25.6922 9.53921 26.0007 10.1087 25.7511 11.0765L25.418 10.9623C25.0294 9.74856 25.1879 9.22408 25.2819 9.11092ZM23.0294 12.7436C23.3167 12.061 24.1671 11.7164 24.9239 11.9759L25.9264 12.3198C25.9272 12.3201 25.928 12.3205 25.9288 12.3209C25.9296 12.3212 25.9305 12.3212 25.9313 12.3212L26.9341 12.6651C27.691 12.9242 28.0727 13.6909 27.7854 14.3731L26.7269 16.8842L25.342 15.6863C25.105 15.481 24.7302 15.481 24.4932 15.6863L22.6996 17.2392L21.5537 16.2462L23.0294 12.7436ZM14.9759 9.45149C16.1798 9.22076 18.0445 11.1668 18.8018 14.3359C18.9808 15.0837 19.0731 15.8187 19.087 16.5278L18.2652 17.2395L16.4728 15.6867C16.2358 15.481 15.8606 15.4814 15.6236 15.6867L14.2284 16.8953C14.0445 16.4449 13.8892 15.972 13.7642 15.4803C14.0584 15.2522 15.1058 14.7944 16.8475 14.4557C17.1786 14.3912 17.389 14.097 17.3175 13.7989C17.2464 13.5003 16.9199 13.3112 16.5893 13.375C15.5333 13.5803 14.5554 13.8615 13.8361 14.1667C13.7601 14.1988 13.6514 14.2452 13.5296 14.3042C13.47 13.8847 13.4356 13.4804 13.4291 13.0989C13.4303 13.0798 13.4307 13.0606 13.4295 13.0414C13.4291 13.0027 13.4307 12.9651 13.4307 12.9264C13.4994 12.744 14.116 12.2516 15.3473 12.012C15.6784 11.9475 15.8888 11.6534 15.8173 11.3548C15.7458 11.0563 15.4193 10.8665 15.0887 10.931C14.5562 11.0345 14.0372 11.1997 13.5876 11.4105C13.8369 10.3 14.3527 9.57275 14.9759 9.45149ZM28.5255 29.8932H12.4471C12.3134 29.8932 12.2346 29.8316 12.2276 29.8095V17.3833L13.407 18.405C13.644 18.6106 14.0192 18.6103 14.2562 18.405L16.0486 16.8525L17.841 18.4053C18.078 18.611 18.4528 18.611 18.6902 18.4053L20.1254 17.1625C20.1324 17.1566 20.1393 17.1507 20.1463 17.1444L20.4834 16.8525L22.2754 18.405C22.5124 18.6103 22.8872 18.611 23.1246 18.405L24.9182 16.8518L26.7143 18.405C26.8328 18.5074 26.9856 18.5587 27.1385 18.5587C27.2913 18.5587 27.4441 18.5074 27.5627 18.405L28.7457 17.3818L28.7461 29.808C28.7376 29.8312 28.6587 29.8932 28.5255 29.8932Z" fill="white"/>
</svg>
