<svg width="24" height="24" viewBox="0 0 24 24" fill="none" xmlns="http://www.w3.org/2000/svg">
<path d="M5.14282 6.0007C5.1426 4.75748 5.58378 3.54489 6.40536 2.53057C7.22695 1.51625 8.38837 0.750282 9.72908 0.338562C11.0698 -0.0731586 12.5236 -0.110301 13.8894 0.232269C15.2553 0.574839 16.4658 1.2802 17.3537 2.25085H12V1.50088C10.636 1.50088 9.32789 1.97497 8.36342 2.81885C7.39894 3.66273 6.85711 4.80728 6.85711 6.0007C6.85711 7.19413 7.39894 8.33868 8.36342 9.18256C9.32789 10.0264 10.636 10.5005 12 10.5005V9.75056H17.3537C16.4658 10.7212 15.2553 11.4266 13.8894 11.7691C12.5236 12.1117 11.0698 12.0746 9.72908 11.6628C8.38837 11.2511 7.22695 10.4852 6.40536 9.47084C5.58378 8.45652 5.1426 7.24393 5.14282 6.0007Z" fill="#FE7845"/>
<path d="M18.36 8.25064H12V6.7507H18.8057C18.7286 7.27568 18.5777 7.77816 18.36 8.25064Z" fill="#FE7845"/>
<path d="M18.8057 5.25077C18.7324 4.73594 18.5826 4.2317 18.36 3.75082H12V5.25077H18.8057Z" fill="#FE7845"/>
<path d="M0 16.5003C0 14.8309 1.548 13.5004 3.444 13.5004H20.5714C21.1718 13.5002 21.7618 13.6379 22.2822 13.8999C22.8027 14.1618 23.2354 14.5387 23.5371 14.9929H12V15.0004H3.444C2.48229 15.0004 1.71429 15.6708 1.71429 16.5003C1.71429 18.4637 2.78057 19.9262 4.58229 20.9296C6.41657 21.9541 9.02571 22.5001 12 22.5001H19.7486C17.6263 23.517 14.904 24 12 24C8.82 24 5.85771 23.421 3.66 22.1956C1.428 20.9506 0 19.0352 0 16.5003Z" fill="#FE7845"/>
<path d="M12 17.9927V16.4928H24V16.5003C24 17.0253 23.9383 17.5218 23.8217 17.9927H12Z" fill="#FE7845"/>
<path d="M23.2183 19.4927C22.8989 20.0437 22.4901 20.5515 22.0046 21.0001H19.2909L19.3029 20.9926H12V19.4927H23.2183Z" fill="#FE7845"/>
</svg>
